# xmcd CD database file
#
# Track frame offsets:
#	150
#	10050
#	52425
#	73875
#	98850
#	141450
#	173625
#	201602
#	244956
#	266931
#	305931
#	310439
#	337514
#
# Disc length: 4672 seconds
#
# Revision: 0
# Processed by: cddbd v1.5.2PL0 Copyright (c) Steve Scherf et al.
# Submitted via: CDex 1.70beta2
#
DISCID=d4123e0d
DTITLE=Abraham - Créateurs d'avant-garde
DYEAR=2007
DGENRE=New Age
TTITLE0=Processus pour focaliser plus clairement votre désir et renforcer votre point d'attraction
TTITLE1=Le déchaînement d'appréciation
TTITLE2=La boite de création magique
TTITLE3=L'atelier de créattivité
TTITLE4=La réalité virtuelle
TTITLE5=Le jeu de la prospérité
TTITLE6=La méditation
TTITLE7=Méditation
TTITLE8=La méditation (suite)
TTITLE9=Le procesus du napperon
TTITLE10=Retrouver son état de santé naturel
TTITLE11=Méditation de guérison
TTITLE12=Retrouver son état de santé naturel (suite)
EXTD=YEAR: 2007
EXTT0=
EXTT1=
EXTT2=
EXTT3=
EXTT4=
EXTT5=
EXTT6=
EXTT7=
EXTT8=
EXTT9=
EXTT10=
EXTT11=
EXTT12=
PLAYORDER=
